<svg width="24" height="24" viewBox="0 0 24 24" fill="none" xmlns="http://www.w3.org/2000/svg">
<path d="M11.5621 3.266C11.6052 3.18761 11.6686 3.12223 11.7457 3.0767C11.8227 3.03117 11.9106 3.00716 12.0001 3.00716C12.0895 3.00716 12.1774 3.03117 12.2544 3.0767C12.3315 3.12223 12.3949 3.18761 12.4381 3.266L15.3901 8.87C15.4605 8.99976 15.5587 9.11233 15.6778 9.19962C15.7968 9.28691 15.9337 9.34675 16.0787 9.37486C16.2236 9.40297 16.3729 9.39863 16.516 9.36218C16.659 9.32572 16.7923 9.25804 16.9061 9.164L21.1831 5.5C21.2652 5.43322 21.3663 5.39422 21.472 5.3886C21.5777 5.38299 21.6824 5.41105 21.7712 5.46875C21.8599 5.52645 21.928 5.61081 21.9657 5.70969C22.0034 5.80857 22.0088 5.91687 21.9811 6.019L19.1471 16.265C19.0892 16.4747 18.9646 16.6598 18.7921 16.7922C18.6195 16.9247 18.4086 16.9973 18.1911 16.999H5.81006C5.59239 16.9975 5.38117 16.925 5.20845 16.7925C5.03573 16.66 4.91095 16.4748 4.85306 16.265L2.02006 6.02C1.99231 5.91787 1.99768 5.80957 2.0354 5.71069C2.07312 5.61181 2.14124 5.52745 2.22996 5.46975C2.31868 5.41205 2.42342 5.38399 2.5291 5.3896C2.63478 5.39522 2.73595 5.43422 2.81806 5.501L7.09406 9.165C7.20786 9.25904 7.34107 9.32672 7.48412 9.36318C7.62718 9.39964 7.77653 9.40397 7.92146 9.37586C8.06639 9.34775 8.20329 9.28791 8.32235 9.20062C8.44141 9.11333 8.53966 9.00076 8.61006 8.871L11.5621 3.266Z" stroke="white" stroke-width="2" stroke-linecap="round" stroke-linejoin="round"/>
<path d="M5 21H19" stroke="white" stroke-width="2" stroke-linecap="round" stroke-linejoin="round"/>
</svg>
